<svg width="20" height="17" viewBox="0 0 20 17" fill="none" xmlns="http://www.w3.org/2000/svg">
<path d="M18.1818 0.970588C17.1727 0.641176 16.0636 0.5 15 0.5C13.2273 0.5 11.3182 0.876471 10 1.91176C8.68182 0.876471 6.77273 0.5 5 0.5C3.22727 0.5 1.31818 0.876471 0 1.91176V15.7C0 15.9353 0.227273 16.1706 0.454545 16.1706C0.545455 16.1706 0.590909 16.1235 0.681818 16.1235C1.90909 15.5118 3.68182 15.0882 5 15.0882C6.77273 15.0882 8.68182 15.4647 10 16.5C11.2273 15.7 13.4545 15.0882 15 15.0882C16.5 15.0882 18.0455 15.3706 19.3182 16.0765C19.4091 16.1235 19.4545 16.1235 19.5455 16.1235C19.7727 16.1235 20 15.8882 20 15.6529V1.91176C19.4545 1.48824 18.8636 1.20588 18.1818 0.970588ZM18.1818 13.6765C17.1818 13.3471 16.0909 13.2059 15 13.2059C13.4545 13.2059 11.2273 13.8176 10 14.6176V3.79412C11.2273 2.99412 13.4545 2.38235 15 2.38235C16.0909 2.38235 17.1818 2.52353 18.1818 2.85294V13.6765Z" fill="white"/>
<path d="M15 6.14706C15.8 6.14706 16.5728 6.23176 17.2728 6.39176V4.96117C16.5546 4.82 15.7818 4.73529 15 4.73529C13.4546 4.73529 12.0546 5.00823 10.9091 5.51647V7.07882C11.9364 6.47647 13.3637 6.14706 15 6.14706Z" fill="white"/>
<path d="M10.9091 8.02001V9.58236C11.9364 8.98001 13.3637 8.6506 15 8.6506C15.8 8.6506 16.5728 8.7353 17.2728 8.8953V7.46471C16.5546 7.32354 15.7818 7.23883 15 7.23883C13.4546 7.23883 12.0546 7.52118 10.9091 8.02001Z" fill="white"/>
<path d="M15 9.75177C13.4546 9.75177 12.0546 10.0247 10.9091 10.5329V12.0953C11.9364 11.4929 13.3637 11.1635 15 11.1635C15.8 11.1635 16.5728 11.2482 17.2728 11.4082V9.97765C16.5546 9.82706 15.7818 9.75177 15 9.75177Z" fill="white"/>
</svg>
